<?xml version="1.0" encoding="UTF-8" standalone="no"?>
<!-- Created with Inkscape (http://www.inkscape.org/) -->

<svg
   width="188.40752"
   height="32.89587"
   viewBox="0 0 49.849485 8.7036987"
   version="1.1"
   id="svg5"
   xmlns="http://www.w3.org/2000/svg"
   xmlns:svg="http://www.w3.org/2000/svg">
  <defs
     id="defs2" />
  <g
     id="layer1"
     style="display:inline"
     transform="translate(-38.561149,-124.49742)">
    <g
       id="g4908"
       transform="rotate(-152.83369,46.386905,129.00503)"
       style="display:inline">
      <path
         style="display:inline;fill:#ffb0cd;fill-opacity:1;stroke-width:0.199997"
         id="path18435"
         d="m 17.607237,-139.68057 a 3.96875,4.2036753 0 0 1 -1.557137,4.53144 3.96875,4.2036753 0 0 1 -4.552763,0 3.96875,4.2036753 0 0 1 -1.5571363,-4.53144 l 3.8335183,1.08799 z"
         transform="rotate(152.83369)" />
      <path
         style="display:inline;fill:#8b9198;fill-opacity:1;stroke-width:0.199997"
         id="path18429"
         d="m 17.607234,-138.62225 a 3.96875,4.2036753 0 0 1 -1.557136,4.53144 3.96875,4.2036753 0 0 1 -4.552763,0 3.96875,4.2036753 0 0 1 -1.5571372,-4.53144 l 3.8335182,1.08799 z"
         transform="rotate(152.83369)" />
      <path
         style="display:inline;fill:#89ceff;stroke-width:0.189733"
         id="ellipse2355-5"
         d="m 17.607237,-137.29934 a 3.96875,3.7833078 0 0 1 -1.557137,4.0783 3.96875,3.7833078 0 0 1 -4.552763,0 3.96875,3.7833078 0 0 1 -1.5571363,-4.0783 l 3.8335183,0.9792 z"
         transform="rotate(152.83369)" />
    </g>
    <text
       xml:space="preserve"
       style="font-size:11.2889px;letter-spacing:0.198437px;fill:#000000;stroke-width:0.264583"
       x="49.941292"
       y="133.03575"
       id="text117"><tspan
         id="tspan115"
         style="font-style:normal;font-variant:normal;font-weight:bold;font-stretch:normal;font-size:11.2889px;font-family:Gelasio;-inkscape-font-specification:'Gelasio Bold';fill:#e2e2e5;fill-opacity:1;stroke-width:0.264583"
         x="49.941292"
         y="133.03575"><tspan
           style="fill:#41474d;fill-opacity:1"
           id="tspan20014">Bl</tspan><tspan
           style="fill:#89ceff;fill-opacity:1"
           id="tspan11399">üi</tspan><tspan
           style="fill:#41474d;fill-opacity:1"
           id="tspan20016">sh</tspan></tspan></text>
  </g>
</svg>
